<?xml version="1.0" encoding="UTF-8" standalone="no"?>
<!-- Uploaded to: SVG Repo, www.svgrepo.com, Generator: SVG Repo Mixer Tools -->

<svg
   width="800px"
   height="800px"
   viewBox="0 0 48 48"
   version="1.1"
   id="svg20"
   sodipodi:docname="checkEngine.svg"
   inkscape:version="1.1.1 (3bf5ae0d25, 2021-09-20)"
   xmlns:inkscape="http://www.inkscape.org/namespaces/inkscape"
   xmlns:sodipodi="http://sodipodi.sourceforge.net/DTD/sodipodi-0.dtd"
   xmlns="http://www.w3.org/2000/svg"
   xmlns:svg="http://www.w3.org/2000/svg">
  <sodipodi:namedview
     id="namedview22"
     pagecolor="#ffffff"
     bordercolor="#666666"
     borderopacity="1.0"
     inkscape:pageshadow="2"
     inkscape:pageopacity="0.0"
     inkscape:pagecheckerboard="0"
     showgrid="false"
     inkscape:zoom="1.03"
     inkscape:cx="400"
     inkscape:cy="400.48544"
     inkscape:window-width="1920"
     inkscape:window-height="1009"
     inkscape:window-x="-8"
     inkscape:window-y="-8"
     inkscape:window-maximized="1"
     inkscape:current-layer="svg20" />
  <defs
     id="defs4">
    <style
       id="style2">.a,.b{fill:none;stroke:#000000;stroke-linecap:round;stroke-linejoin:round;}.a{fill-rule:evenodd;}</style>
  </defs>
  <path
     class="a"
     d="M18.14,14.68a1.7,1.7,0,0,1,0-3.39h12a1.7,1.7,0,1,1,0,3.39h-12Z"
     id="path6"
     style="fill:none;fill-opacity:1;stroke:#e30613;stroke-opacity:1;stroke-width:1.31802;stroke-miterlimit:4;stroke-dasharray:none" />
  <path
     class="a"
     d="M10,21.77A1.8,1.8,0,0,1,11.79,20h1.4l2.66-2.26a1.13,1.13,0,0,1,.73-.27H31.84A1.59,1.59,0,0,1,33.42,19v2.15h1.79a1.59,1.59,0,0,1,1.58,1.59h0V35.13a1.58,1.58,0,0,1-1.58,1.58H21.65a1.17,1.17,0,0,1-.66-.2L16,33H11.79A1.79,1.79,0,0,1,10,31.17h0Z"
     id="path8"
     style="fill:none;fill-opacity:1;stroke:#e30613;stroke-opacity:1;stroke-width:1.31802;stroke-miterlimit:4;stroke-dasharray:none" />
  <path
     class="a"
     d="M7.89,31.55a1.7,1.7,0,0,1-3.39,0h0V21.38a1.7,1.7,0,1,1,3.39,0Z"
     id="path10"
     style="fill:none;fill-opacity:1;stroke:#e30613;stroke-opacity:1;stroke-width:1.31802;stroke-miterlimit:4;stroke-dasharray:none" />
  <line
     class="b"
     x1="7.89"
     y1="26.46"
     x2="10"
     y2="26.46"
     id="line12"
     style="fill:none;fill-opacity:1;stroke:#e30613;stroke-opacity:1;stroke-width:1.31802;stroke-miterlimit:4;stroke-dasharray:none" />
  <path
     class="a"
     d="M38.64,22.22a1.14,1.14,0,0,1,1.13-1.13h.83a1.13,1.13,0,0,1,.92.48L43.29,24a1.18,1.18,0,0,1,.21.66V32a1.09,1.09,0,0,1-.23.68L41.52,35a1.14,1.14,0,0,1-.9.47h-.85a1.14,1.14,0,0,1-1.13-1.13Z"
     id="path14"
     style="fill:none;fill-opacity:1;stroke:#e30613;stroke-opacity:1;stroke-width:1.31802;stroke-miterlimit:4;stroke-dasharray:none" />
  <line
     class="b"
     x1="24.14"
     y1="17.44"
     x2="24.14"
     y2="14.68"
     id="line16"
     style="fill:none;fill-opacity:1;stroke:#e30613;stroke-opacity:1;stroke-width:1.31802;stroke-miterlimit:4;stroke-dasharray:none" />
  <line
     class="b"
     x1="38.64"
     y1="28.27"
     x2="36.79"
     y2="28.27"
     id="line18"
     style="fill:none;fill-opacity:1;stroke:#e30613;stroke-opacity:1;stroke-width:1.31802;stroke-miterlimit:4;stroke-dasharray:none" />
</svg>
