<?xml version="1.0" encoding="UTF-8" standalone="no"?>
<!-- Uploaded to: SVG Repo, www.svgrepo.com, Generator: SVG Repo Mixer Tools -->

<svg
   fill="#000000"
   version="1.1"
   id="Layer_1"
   viewBox="0 0 496 496"
   xml:space="preserve"
   sodipodi:docname="deliveryMan.svg"
   inkscape:version="1.1.1 (3bf5ae0d25, 2021-09-20)"
   xmlns:inkscape="http://www.inkscape.org/namespaces/inkscape"
   xmlns:sodipodi="http://sodipodi.sourceforge.net/DTD/sodipodi-0.dtd"
   xmlns="http://www.w3.org/2000/svg"
   xmlns:svg="http://www.w3.org/2000/svg"><defs
   id="defs27" /><sodipodi:namedview
   id="namedview25"
   pagecolor="#ffffff"
   bordercolor="#666666"
   borderopacity="1.0"
   inkscape:pageshadow="2"
   inkscape:pageopacity="0.0"
   inkscape:pagecheckerboard="0"
   showgrid="false"
   inkscape:zoom="1.1747097"
   inkscape:cx="398.39632"
   inkscape:cy="281.34612"
   inkscape:window-width="1920"
   inkscape:window-height="1009"
   inkscape:window-x="-8"
   inkscape:window-y="-8"
   inkscape:window-maximized="1"
   inkscape:current-layer="g18" />
<g
   id="g22">
	<g
   id="g20">
		<g
   id="g18">
			<path
   d="M184,144h-10.848C189.504,130.792,200,110.608,200,88V64h24V48h-24c0-26.472-21.528-48-48-48h-48     C77.528,0,56,21.528,56,48v16v24c0,22.608,10.496,42.792,26.848,56H72c-39.696,0-72,32.304-72,72v80c0,26.472,21.528,48,48,48     v152h160V344c26.472,0,48-21.528,48-48v-80C256,176.304,223.696,144,184,144z M104,16h48c17.648,0,32,14.352,32,32H72     C72,30.352,86.352,16,104,16z M72,88V64h112v24c0,30.88-25.12,56-56,56S72,118.88,72,88z M153.904,160L128,181.584L102.096,160     H153.904z M48,328c-17.648,0-32-14.352-32-32v-64h32V328z M120,480H64v-16h56V480z M192,480h-56v-16h56V480z M192,448h-56v-88     h-16v88H64V328h128V448z M240,296c0,17.648-14.352,32-32,32v-96h32V296z M208,216v-16h-16v112H64V200H48v16H16     c0-30.88,25.12-56,56-56h5.104L128,202.416L178.896,160H184c30.88,0,56,25.12,56,56H208z"
   id="path2"
   style="fill:#e30613;fill-opacity:1" />
			<rect
   x="448"
   y="448"
   width="16"
   height="16"
   id="rect4"
   style="fill:#e30613;fill-opacity:1" />
			<rect
   x="416"
   y="448"
   width="16"
   height="16"
   id="rect6"
   style="fill:#e30613;fill-opacity:1" />
			<rect
   x="448"
   y="416"
   width="16"
   height="16"
   id="rect8"
   style="fill:#e30613;fill-opacity:1" />
			<path
   d="M272,128v176v8v184h224V312v-8V128H272z M376,144h16v64h-16V144z M480,480H288V320h72v80h48v-80h72V480z M376,384v-64h16     v64H376z M480,304H288V144h72v80h48v-80h72V304z"
   id="path10"
   style="fill:#e30613;fill-opacity:1" />
			<rect
   x="448"
   y="272"
   width="16"
   height="16"
   id="rect12"
   style="fill:#e30613;fill-opacity:1" />
			<rect
   x="416"
   y="272"
   width="16"
   height="16"
   id="rect14"
   style="fill:#e30613;fill-opacity:1" />
			<rect
   x="448"
   y="240"
   width="16"
   height="16"
   id="rect16"
   style="fill:#e30613;fill-opacity:1" />
		</g>
	</g>
</g>
</svg>
