<?xml version="1.0" encoding="UTF-8" standalone="no"?>
<!-- Uploaded to: SVG Repo, www.svgrepo.com, Generator: SVG Repo Mixer Tools -->

<svg
   width="800px"
   height="800px"
   viewBox="0 0 24 24"
   fill="none"
   version="1.1"
   id="svg4"
   sodipodi:docname="house.svg"
   inkscape:version="1.1.1 (3bf5ae0d25, 2021-09-20)"
   xmlns:inkscape="http://www.inkscape.org/namespaces/inkscape"
   xmlns:sodipodi="http://sodipodi.sourceforge.net/DTD/sodipodi-0.dtd"
   xmlns="http://www.w3.org/2000/svg"
   xmlns:svg="http://www.w3.org/2000/svg">
  <defs
     id="defs8" />
  <sodipodi:namedview
     id="namedview6"
     pagecolor="#ffffff"
     bordercolor="#666666"
     borderopacity="1.0"
     inkscape:pageshadow="2"
     inkscape:pageopacity="0.0"
     inkscape:pagecheckerboard="0"
     showgrid="false"
     inkscape:zoom="1.03"
     inkscape:cx="400"
     inkscape:cy="400.48544"
     inkscape:window-width="1920"
     inkscape:window-height="1009"
     inkscape:window-x="-8"
     inkscape:window-y="-8"
     inkscape:window-maximized="1"
     inkscape:current-layer="svg4" />
  <path
     d="M14 21.0001V15.0001H10V21.0001M19 9.77818V16.2001C19 17.8802 19 18.7203 18.673 19.362C18.3854 19.9265 17.9265 20.3855 17.362 20.6731C16.7202 21.0001 15.8802 21.0001 14.2 21.0001H9.8C8.11984 21.0001 7.27976 21.0001 6.63803 20.6731C6.07354 20.3855 5.6146 19.9265 5.32698 19.362C5 18.7203 5 17.8802 5 16.2001V9.77753M21 12.0001L15.5668 5.96405C14.3311 4.59129 13.7133 3.9049 12.9856 3.65151C12.3466 3.42894 11.651 3.42899 11.0119 3.65165C10.2843 3.90516 9.66661 4.59163 8.43114 5.96458L3 12.0001"
     stroke="#000000"
     stroke-width="2"
     stroke-linecap="round"
     stroke-linejoin="round"
     id="path2"
     style="fill:none;fill-opacity:1;stroke:#e30613;stroke-opacity:1" />
</svg>
