<?xml version="1.0" encoding="UTF-8" standalone="no"?>
<!-- Created with Inkscape (http://www.inkscape.org/) -->

<svg
   width="175px"
   height="96px"
   viewBox="0 0 175 96"
   version="1.1"
   id="SVGRoot"
   sodipodi:docname="logo.svg"
   inkscape:version="1.1.1 (3bf5ae0d25, 2021-09-20)"
   xmlns:inkscape="http://www.inkscape.org/namespaces/inkscape"
   xmlns:sodipodi="http://sodipodi.sourceforge.net/DTD/sodipodi-0.dtd"
   xmlns="http://www.w3.org/2000/svg"
   xmlns:svg="http://www.w3.org/2000/svg">
  <sodipodi:namedview
     id="namedview928"
     pagecolor="#ffffff"
     bordercolor="#666666"
     borderopacity="1.0"
     inkscape:pageshadow="2"
     inkscape:pageopacity="0.0"
     inkscape:pagecheckerboard="0"
     inkscape:document-units="px"
     showgrid="false"
     inkscape:zoom="5.8725028"
     inkscape:cx="77.650027"
     inkscape:cy="60.195799"
     inkscape:window-width="1920"
     inkscape:window-height="1009"
     inkscape:window-x="-8"
     inkscape:window-y="-8"
     inkscape:window-maximized="1"
     inkscape:current-layer="layer1" />
  <defs
     id="defs923" />
  <g
     inkscape:label="Warstwa 1"
     inkscape:groupmode="layer"
     id="layer1">
    <path
       d="m 174.72,13.15 c -0.56,-1.27 -3.38,-2.27 -4.61,-2.92 -3.43,-1.8 -12.15,-4.09 -17.32,-5.37 0,0 -0.01,0 -0.01,0 -2.22,-1.84 -4.7,-3.1 -7.16,-3.05 l 0.21,0.28 c 0,0 0,0 -0.01,0 -1.71,-0.41 -3.42,-0.77 -4.91,-1.38 0.56,0.69 1.19,1.25 1.88,1.72 0,0 0,0 0,0 -0.08,0 -0.16,0.01 -0.23,0.02 -0.45,-0.1 -0.9,-0.2 -1.35,-0.28 -0.17,-0.03 -0.34,-0.06 -0.51,-0.09 -2.55,-1.14 -5.28,-1.79 -8.06,-2.08 0.77,0.42 1.56,0.82 2.33,1.23 -1.91,-0.22 -3.82,-0.37 -5.73,-0.44 1.75,0.64 3.53,1.19 5.32,1.7 -2.34,0.07 -4.69,0.16 -7.01,-0.05 -2.54,-0.23 -4.84,-0.76 -7.21,-1.66 2.13,1.44 4.26,2.38 6.77,2.94 0.38,0.09 0.75,0.17 1.14,0.25 -2.35,0.09 -4.68,0.09 -7.04,-0.5 1.04,0.65 2.12,1.12 3.23,1.45 -0.05,0 -0.09,0 -0.14,0 -2.32,-0.43 -4.56,-1.18 -6.64,-2.52 0.95,1.01 2.03,1.83 3.19,2.48 -2.74,-0.26 -5.24,-1.12 -7.53,-2.71 1.96,2.05 4.3,3.19 6.8,3.77 -0.66,0.03 -1.33,0.05 -2,0.03 -3.1,-0.04 -5.97,-0.7 -8.76,-2.04 3.31,2.51 7.2,3.42 11.19,3.55 -0.44,0.06 -0.89,0.12 -1.33,0.18 -1.28,-0.08 -2.55,-0.2 -3.8,-0.42 -2.34,-0.34 -4.48,-0.98 -6.66,-1.89 2.06,1.52 4.17,2.54 6.64,3.26 0.65,0.19 1.31,0.34 1.98,0.48 -0.72,-0.04 -1.43,-0.08 -2.15,-0.16 -3.47,-0.36 -6.64,-1.35 -9.67,-3.08 2.21,1.84 4.68,3.03 7.3,3.81 -2.27,-0.18 -4.47,-0.54 -6.7,-1.13 1.86,0.94 3.71,1.64 5.68,2.12 -3.2,0.05 -6.35,-0.2 -9.22,-1.84 0.88,0.98 1.92,1.72 3.06,2.26 -1.62,-0.24 -3.19,-0.67 -4.76,-1.31 2.48,1.64 5.1,2.56 8.07,2.84 0.67,0.07 1.34,0.08 2.01,0.09 -0.45,0.05 -0.9,0.1 -1.34,0.14 -0.91,0.08 -1.83,0.16 -2.74,0.24 -0.44,-0.09 -0.88,-0.18 -1.31,-0.29 -2.41,-0.61 -4.55,-1.64 -6.57,-3.07 1.37,1.54 2.95,2.7 4.67,3.58 -0.4,0.02 -0.81,0.04 -1.21,0.06 -3.05,-0.03 -6.05,-0.48 -8.95,-1.84 0.93,0.71 1.91,1.29 2.94,1.75 -2.43,-0.15 -4.84,-0.37 -7.27,-0.6 3.02,0.86 5.99,1.58 9.1,2.01 0.28,0.04 0.56,0.07 0.84,0.1 -0.23,0 -0.46,0.01 -0.69,0 -2.36,-0.01 -4.62,-0.24 -6.94,-0.67 1.92,0.87 3.82,1.45 5.85,1.81 -1.64,-0.05 -3.26,-0.16 -4.89,-0.45 -1.24,-0.23 -2.43,-0.57 -3.64,-0.92 1.22,0.61 2.41,1.18 3.7,1.62 0.66,0.23 1.34,0.41 2.02,0.56 -1.86,0 -3.72,-0.12 -5.59,-0.47 2.77,1.5 5.69,2.05 8.67,2.15 -0.97,0.04 -1.95,0.04 -2.92,0.01 -3.07,-0.11 -5.93,-0.8 -8.71,-2.06 3.66,2.62 7.92,3.56 12.28,3.65 -0.27,0.02 -0.54,0.05 -0.81,0.06 -1.83,0.13 -3.57,0.01 -5.38,-0.28 1.07,0.54 2.16,0.92 3.27,1.19 -2.64,0.2 -5.26,0.03 -7.76,-1.13 2.92,2.79 7.13,3.11 10.99,2.68 -2.4,0.43 -4.87,0.79 -7.35,1.17 -7.64,0.83 -12.84,0.72 -19.23,-0.93 -1.59,-0.68 -3.44,-1.08 -5.54,-1.22 -6.8,-0.44 -12.4,1.46 -15.83,4.95 -1.93,-1.24 -3.99,-2.24 -6.27,-2.87 -0.97,-0.27 -1.95,-0.45 -2.93,-0.58 -3.63,-1.23 -7.49,-1.76 -11.45,-1.49 -4.29,0.28 -8.11,1.78 -12.03,3.36 -1.19,0.28 -2.38,0.57 -3.58,0.81 -2.33,0.46 -4.6,1 -6.99,1.01 -1.83,0 -3.54,-0.3 -5.28,-0.84 1.39,0.73 2.79,1.18 4.21,1.45 1.92,0.7 3.85,0.88 5.78,0.72 0.38,0.17 0.76,0.34 1.15,0.49 -0.29,0.07 -0.58,0.15 -0.87,0.22 -1.84,0.42 -3.66,0.65 -5.48,0.68 -0.25,-0.02 -0.49,-0.03 -0.74,-0.06 0.09,0.03 0.18,0.05 0.27,0.08 -1.96,-0.01 -3.91,-0.27 -5.87,-0.81 1.57,0.77 3.17,1.27 4.77,1.56 0.53,0.51 1.08,0.99 1.69,1.4 C 4.67,31.55 2.35,31.12 0,30.31 c 3.04,1.82 6.26,2.54 9.53,2.59 0.6,0.24 1.22,0.45 1.84,0.62 -1.07,0.23 -2.15,0.4 -3.26,0.43 -1.76,0.06 -3.36,-0.27 -5.02,-0.75 1.64,0.84 3.28,1.31 4.92,1.51 -1.07,0.03 -2.14,-0.02 -3.2,-0.2 -1.51,-0.25 -2.87,-0.74 -4.29,-1.3 1.39,0.84 2.71,1.56 4.27,2.03 2.23,0.67 4.6,0.78 6.91,0.59 0.28,-0.02 0.55,-0.07 0.83,-0.1 2.83,0.62 5.63,0.7 8.53,0.23 3.94,-0.64 7.71,-2.09 11.4,-3.58 3.62,-1.44 7.24,-3.06 11.1,-3.69 2.1,-0.34 4.01,-0.31 5.47,-0.15 -2.06,3.2 -2.64,7.3 -1.23,11.95 0.41,1.33 0.85,2.59 1.33,3.77 1.38,3.39 3.06,6.11 4.86,7.84 -1.89,3.01 -5.55,4.48 -9.84,5.17 -0.8,-0.18 -1.66,-0.06 -2.46,0.33 -0.71,0.34 -1.37,0.89 -1.88,1.62 -1.34,1.94 -1.11,4.43 0.51,5.58 3.57,5.34 7.49,11.56 6.48,15.05 -0.17,0.57 0.14,1.18 0.7,1.39 0.47,0.18 1.06,0.39 1.66,0.58 -0.9,0.83 -1.93,1.55 -2.8,1.97 -0.18,0.08 -0.36,0.169995 -0.52,0.229995 -0.75,0.27 -1.29,0.59 -1.03,1.35 l 3.48,9.78 c 1.07,-0.82 2.1,-2.57 2.95,-4.8 0.2,-0.52 0.39,-1.07 0.57,-1.64 0.7,-2.22 1.23,-4.75 1.47,-7.219995 0,0 0,-0.01 0,-0.01 0.02,-0.2 0.04,-0.4 0.05,-0.59 V 80.88 C 53.26,77.11 47.31,69.5 45.38,63.87 c 0.14,-0.16 0.27,-0.32 0.39,-0.49 0.07,-0.1 0.14,-0.2 0.19,-0.31 4.94,-0.38 9.41,-1 14.12,-2.96 -0.57,1.21 -1.31,2.43 -2.16,3.63 -1.27,0.85 -1.97,2.59 -1.61,4.42 0.45,2.32 2.39,3.89 4.35,3.53 6.32,1.18 13.51,2.72 15.29,5.89 0.29,0.52 0.94,0.72 1.49,0.47 0.27,-0.12 0.57,-0.27 0.89,-0.43 0.21,0.13 0.43,0.27 0.65,0.4 -0.07,0.86 -0.23,1.7 -0.43,2.38 -0.09,0.28 -0.18,0.55 -0.28,0.77 -0.33,0.73 -0.47,1.34 0.25,1.68 l 9.43,4.339995 c 0.14,-1.18 -0.27,-2.86 -1.06,-4.739995 -0.22,-0.52 -0.47,-1.05 -0.74,-1.59 0.12,0.03 0.24,0.07 0.37,0.1 0,0 0.01,0 0.01,0.01 2.75,1.7 11.61,-1.49 17.33,-3.55 4.38,1.01 14.12,-1.27 18.76,-2.12 1.5,0.68 3.63,-0.03 5.07,-1.81 0.27,-0.33 0.49,-0.69 0.67,-1.05 l 0.11,-0.06 c 0,0 0,-0.06 -0.01,-0.14 0.78,-1.64 0.69,-3.37 -0.31,-4.37 -0.42,-5.88 -1.14,-15.93 -1.41,-20.29 0.65,-1.19 1.17,-2.45 1.53,-3.75 0.46,-1.63 0.68,-3.3 0.65,-4.94 2.87,-4.73 7.74,-14.62 19.87,-19.62 1.65,1.57 4.2,2.39 6.89,1.97 2.04,-0.32 3.78,-1.29 4.98,-2.61 2.01,0.01 6.75,0.14 6.75,0.14 1.87,1.73 3.65,2.13 5.35,1.14 l -2.53,-2.07 2.13,0.7 1.32,0.43 c 0,0 0.89,-0.98 0.93,-1.59 0.12,-1.26 0.39,-3.61 0.11,-4.23 z M 13.26,27.87 c 1.24,-0.18 2.48,-0.48 3.74,-0.84 0.01,0 0.03,-0.01 0.04,-0.01 0.86,-0.11 1.72,-0.23 2.57,-0.35 -1.61,0.49 -3.22,0.99 -4.84,1.44 -0.51,-0.07 -1.01,-0.14 -1.51,-0.24 z m 3.64,2.16 c -0.33,0.09 -0.66,0.18 -0.99,0.27 -0.35,0 -0.69,-0.02 -1.04,-0.04 0.68,-0.05 1.35,-0.12 2.03,-0.23 z m -5.45,1.25 c -0.95,0.15 -1.89,0.24 -2.81,0.27 0,0 -0.01,0 -0.01,0 -0.99,-0.32 -1.89,-0.79 -2.76,-1.32 2.02,0.31 4.05,0.31 6.09,0.09 0.22,0.01 0.44,0.02 0.67,0.02 0.44,0.17 0.89,0.32 1.34,0.44 -0.84,0.19 -1.68,0.37 -2.52,0.5 z m 9.44,3.04 c -2.26,0.66 -4.51,1.04 -6.81,1.14 1.93,-0.34 3.81,-0.87 5.66,-1.51 1.83,-0.23 3.64,-0.63 5.43,-1.12 -1.41,0.55 -2.83,1.06 -4.28,1.49 z m 68.79,40.63 c -0.54,-0.27 -1.18,-0.07 -1.49,0.44 -0.22,0.35 -0.46,0.77 -0.71,1.23 -0.66,-0.81 -1,-1.71 -1.23,-2.76 l -3.45,1.51 c 0,0 0,0 0,0 l 3.45,-1.51 C 86.24,73.8 86.22,73.74 86.21,73.68 86.05,72.89 85.82,72.32 85.03,72.46 l -4.19,0.7 c -3.24,-2.32 -12.16,-3.4 -17.26,-5.84 -0.01,-0.2 -0.03,-0.41 -0.07,-0.62 -0.02,-0.11 -0.06,-0.2 -0.09,-0.31 2.47,-2.82 4.88,-5.4 6.91,-8.4 1.45,-2.15 2.71,-4.51 3.67,-7.36 0.22,-0.2 0.44,-0.41 0.66,-0.62 8.34,5.87 21.41,7.34 35.63,6.16 l -0.35,1.82 -2.13,10.99 c -0.46,0.21 -0.92,0.49 -1.35,0.85 -0.46,0.38 -0.83,0.81 -1.14,1.25 -0.22,0.06 -0.43,0.17 -0.58,0.36 -0.26,0.32 -0.57,0.7 -0.88,1.1 -0.56,-0.95 -0.76,-1.94 -0.82,-3.1 0,-0.05 -0.01,-0.09 -0.01,-0.13 -0.05,-0.73 -0.22,-1.27 -0.98,-1.25 l -10.27,0.15 c 0.36,1.06 1.16,2.19 2.3,3.32 1.14,1.12 2.64,2.23 4.41,3.24 -3.63,0.84 -6.94,1.11 -8.81,0.18 z m 23.19,-3.73 c 0.63,-1.13 1.37,-2.46 2.16,-3.89 1.28,-2.3 2.7,-4.85 4.03,-7.24 l 3.55,8.73 c -0.07,0.08 -0.16,0.15 -0.23,0.24 -0.63,0.78 -1.03,1.64 -1.21,2.48 -2.87,0.54 -5.87,0.91 -8.5,0.94 0.15,-0.42 0.21,-0.85 0.2,-1.26 z"
       id="path22"
       style="fill:#e30613;fill-opacity:1" />
  </g>
</svg>
