<?xml version="1.0" encoding="utf-8"?>
<!-- Generator: Adobe Illustrator 24.0.3, SVG Export Plug-In . SVG Version: 6.00 Build 0)  -->
<svg version="1.1" id="Warstwa_1" xmlns="http://www.w3.org/2000/svg" xmlns:xlink="http://www.w3.org/1999/xlink" x="0px" y="0px"
	 viewBox="0 0 458.78 138.78" style="enable-background:new 0 0 458.78 138.78;" xml:space="preserve">
<style type="text/css">
	.st0{fill:#E30613;}
</style>
<g>
	<g>
		<path class="st0" d="M65.06,67L47.07,82.81l12.44,16.55H43.56L33.25,84.15l-2.68,15.21H18.18L23.91,67H36.3l-2.5,14.1L48.14,67
			H65.06z"/>
		<path class="st0" d="M68.67,99.36c-6.61,0-9.52-3.51-8.37-10.17l2.31-12.95C63.77,69.59,66.86,67,73.48,67h21.17
			c6.61,0,9.52,3.51,8.37,10.17l-2.31,12.95c-1.16,6.66-4.25,9.25-10.86,9.25H68.67z M86.42,89.19c1.62,0,2.22-0.46,2.45-2.08
			l1.39-7.77c0.23-1.62-0.19-2.17-1.8-2.17H76.9c-1.62,0-2.22,0.46-2.45,2.08l-1.39,7.77c-0.23,1.62,0.18,2.17,1.8,2.17H86.42z"/>
		<path class="st0" d="M136.36,67h11.93l-5.73,32.36h-10.08l-14.98-17.94l-3.14,17.94h-11.93L108.15,67h10.54l14.56,17.48L136.36,67
			z"/>
		<path class="st0" d="M152.17,67h12.58l-5.73,32.36h-12.58L152.17,67z"/>
		<path class="st0" d="M209.78,67l-17.99,15.81l12.44,16.55h-15.95l-10.31-15.21l-2.68,15.21H162.9L168.63,67h12.39l-2.5,14.1
			L192.86,67H209.78z"/>
		<path class="st0" d="M345.16,67c5.18,0,7.44,2.82,6.57,8.04l-0.32,1.94c-0.6,3.51-1.9,5.32-4.44,6.06c2.63,0.83,3.65,3.05,3.1,6.7
			l-0.37,2.31c-0.88,5.32-3.28,7.3-8.6,7.3h-31.44L315.38,67H345.16z M338.04,87.89c0.23-1.16-0.09-1.48-1.25-1.48h-12.44
			l-0.74,4.16h12.53c1.11,0,1.43-0.32,1.67-1.48L338.04,87.89z M326.2,75.78l-0.65,3.79h11.6c1.11,0,1.34-0.32,1.66-1.48l0.19-0.83
			c0.23-1.11-0.14-1.48-1.29-1.48H326.2z"/>
		<path class="st0" d="M361.62,99.36c-6.61,0-9.52-3.51-8.37-10.17L357.18,67h12.39l-3.51,19.83c-0.23,1.62,0.18,2.17,1.8,2.17
			h10.17c1.62,0,2.22-0.46,2.45-2.08L384,67h12.39l-4.12,23.12c-1.16,6.66-4.25,9.25-10.86,9.25H361.62z"/>
		<path class="st0" d="M395.74,88.54h11.93l-0.28,1.48c-0.23,1.16,0.09,1.48,1.25,1.48h12.39c1.16,0,1.53-0.32,1.71-1.48l0.14-0.97
			c0.18-1.11-0.09-1.34-1.25-1.48l-17.06-0.97c-5.32-0.32-7.58-2.87-6.66-8.09l0.74-4.21c0.92-5.32,3.33-7.31,8.65-7.31h23.21
			c5.22,0,7.4,2.68,6.57,8.04l-0.37,2.4h-11.93l0.18-1.11c0.19-1.16-0.09-1.48-1.25-1.48h-11.28c-1.16,0-1.53,0.32-1.71,1.48
			l-0.09,0.6c-0.19,1.11,0.09,1.34,1.25,1.48l17.06,0.97c5.32,0.37,7.54,2.87,6.61,8.09l-0.79,4.58c-0.92,5.36-3.28,7.3-8.6,7.3
			h-24.32c-5.32,0-7.58-2.73-6.61-8.04L395.74,88.54z"/>
	</g>
	<path d="M347.28,33.72c-0.56-1.27-3.38-2.27-4.61-2.92c-3.43-1.8-12.15-4.09-17.32-5.37c0,0-0.01,0-0.01,0
		c-2.22-1.84-4.7-3.1-7.16-3.05l0.21,0.28c0,0,0,0-0.01,0c-1.71-0.41-3.42-0.77-4.91-1.38c0.56,0.69,1.19,1.25,1.88,1.72
		c0,0,0,0,0,0c-0.08,0-0.16,0.01-0.23,0.02c-0.45-0.1-0.9-0.2-1.35-0.28c-0.17-0.03-0.34-0.06-0.51-0.09
		c-2.55-1.14-5.28-1.79-8.06-2.08c0.77,0.42,1.56,0.82,2.33,1.23c-1.91-0.22-3.82-0.37-5.73-0.44c1.75,0.64,3.53,1.19,5.32,1.7
		c-2.34,0.07-4.69,0.16-7.01-0.05c-2.54-0.23-4.84-0.76-7.21-1.66c2.13,1.44,4.26,2.38,6.77,2.94c0.38,0.09,0.75,0.17,1.14,0.25
		c-2.35,0.09-4.68,0.09-7.04-0.5c1.04,0.65,2.12,1.12,3.23,1.45c-0.05,0-0.09,0-0.14,0c-2.32-0.43-4.56-1.18-6.64-2.52
		c0.95,1.01,2.03,1.83,3.19,2.48c-2.74-0.26-5.24-1.12-7.53-2.71c1.96,2.05,4.3,3.19,6.8,3.77c-0.66,0.03-1.33,0.05-2,0.03
		c-3.1-0.04-5.97-0.7-8.76-2.04c3.31,2.51,7.2,3.42,11.19,3.55c-0.44,0.06-0.89,0.12-1.33,0.18c-1.28-0.08-2.55-0.2-3.8-0.42
		c-2.34-0.34-4.48-0.98-6.66-1.89c2.06,1.52,4.17,2.54,6.64,3.26c0.65,0.19,1.31,0.34,1.98,0.48c-0.72-0.04-1.43-0.08-2.15-0.16
		c-3.47-0.36-6.64-1.35-9.67-3.08c2.21,1.84,4.68,3.03,7.3,3.81c-2.27-0.18-4.47-0.54-6.7-1.13c1.86,0.94,3.71,1.64,5.68,2.12
		c-3.2,0.05-6.35-0.2-9.22-1.84c0.88,0.98,1.92,1.72,3.06,2.26c-1.62-0.24-3.19-0.67-4.76-1.31c2.48,1.64,5.1,2.56,8.07,2.84
		c0.67,0.07,1.34,0.08,2.01,0.09c-0.45,0.05-0.9,0.1-1.34,0.14c-0.91,0.08-1.83,0.16-2.74,0.24c-0.44-0.09-0.88-0.18-1.31-0.29
		c-2.41-0.61-4.55-1.64-6.57-3.07c1.37,1.54,2.95,2.7,4.67,3.58c-0.4,0.02-0.81,0.04-1.21,0.06c-3.05-0.03-6.05-0.48-8.95-1.84
		c0.93,0.71,1.91,1.29,2.94,1.75c-2.43-0.15-4.84-0.37-7.27-0.6c3.02,0.86,5.99,1.58,9.1,2.01c0.28,0.04,0.56,0.07,0.84,0.1
		c-0.23,0-0.46,0.01-0.69,0c-2.36-0.01-4.62-0.24-6.94-0.67c1.92,0.87,3.82,1.45,5.85,1.81c-1.64-0.05-3.26-0.16-4.89-0.45
		c-1.24-0.23-2.43-0.57-3.64-0.92c1.22,0.61,2.41,1.18,3.7,1.62c0.66,0.23,1.34,0.41,2.02,0.56c-1.86,0-3.72-0.12-5.59-0.47
		c2.77,1.5,5.69,2.05,8.67,2.15c-0.97,0.04-1.95,0.04-2.92,0.01c-3.07-0.11-5.93-0.8-8.71-2.06c3.66,2.62,7.92,3.56,12.28,3.65
		c-0.27,0.02-0.54,0.05-0.81,0.06c-1.83,0.13-3.57,0.01-5.38-0.28c1.07,0.54,2.16,0.92,3.27,1.19c-2.64,0.2-5.26,0.03-7.76-1.13
		c2.92,2.79,7.13,3.11,10.99,2.68c-2.4,0.43-4.87,0.79-7.35,1.17c-7.64,0.83-12.84,0.72-19.23-0.93c-1.59-0.68-3.44-1.08-5.54-1.22
		c-6.8-0.44-12.4,1.46-15.83,4.95c-1.93-1.24-3.99-2.24-6.27-2.87c-0.97-0.27-1.95-0.45-2.93-0.58c-3.63-1.23-7.49-1.76-11.45-1.49
		c-4.29,0.28-8.11,1.78-12.03,3.36c-1.19,0.28-2.38,0.57-3.58,0.81c-2.33,0.46-4.6,1-6.99,1.01c-1.83,0-3.54-0.3-5.28-0.84
		c1.39,0.73,2.79,1.18,4.21,1.45c1.92,0.7,3.85,0.88,5.78,0.72c0.38,0.17,0.76,0.34,1.15,0.49c-0.29,0.07-0.58,0.15-0.87,0.22
		c-1.84,0.42-3.66,0.65-5.48,0.68c-0.25-0.02-0.49-0.03-0.74-0.06c0.09,0.03,0.18,0.05,0.27,0.08c-1.96-0.01-3.91-0.27-5.87-0.81
		c1.57,0.77,3.17,1.27,4.77,1.56c0.53,0.51,1.08,0.99,1.69,1.4c-2.37-0.07-4.69-0.5-7.04-1.31c3.04,1.82,6.26,2.54,9.53,2.59
		c0.6,0.24,1.22,0.45,1.84,0.62c-1.07,0.23-2.15,0.4-3.26,0.43c-1.76,0.06-3.36-0.27-5.02-0.75c1.64,0.84,3.28,1.31,4.92,1.51
		c-1.07,0.03-2.14-0.02-3.2-0.2c-1.51-0.25-2.87-0.74-4.29-1.3c1.39,0.84,2.71,1.56,4.27,2.03c2.23,0.67,4.6,0.78,6.91,0.59
		c0.28-0.02,0.55-0.07,0.83-0.1c2.83,0.62,5.63,0.7,8.53,0.23c3.94-0.64,7.71-2.09,11.4-3.58c3.62-1.44,7.24-3.06,11.1-3.69
		c2.1-0.34,4.01-0.31,5.47-0.15c-2.06,3.2-2.64,7.3-1.23,11.95c0.41,1.33,0.85,2.59,1.33,3.77c1.38,3.39,3.06,6.11,4.86,7.84
		c-1.89,3.01-5.55,4.48-9.84,5.17c-0.8-0.18-1.66-0.06-2.46,0.33c-0.71,0.34-1.37,0.89-1.88,1.62c-1.34,1.94-1.11,4.43,0.51,5.58
		c3.57,5.34,7.49,11.56,6.48,15.05c-0.17,0.57,0.14,1.18,0.7,1.39c0.47,0.18,1.06,0.39,1.66,0.58c-0.9,0.83-1.93,1.55-2.8,1.97
		c-0.18,0.08-0.36,0.17-0.52,0.23c-0.75,0.27-1.29,0.59-1.03,1.35l3.48,9.78c1.07-0.82,2.1-2.57,2.95-4.8
		c0.2-0.52,0.39-1.07,0.57-1.64c0.7-2.22,1.23-4.75,1.47-7.22c0,0,0-0.01,0-0.01c0.02-0.2,0.04-0.4,0.05-0.59v-0.01
		c-0.07-3.77-6.02-11.38-7.95-17.01c0.14-0.16,0.27-0.32,0.39-0.49c0.07-0.1,0.14-0.2,0.19-0.31c4.94-0.38,9.41-1,14.12-2.96
		c-0.57,1.21-1.31,2.43-2.16,3.63c-1.27,0.85-1.97,2.59-1.61,4.42c0.45,2.32,2.39,3.89,4.35,3.53c6.32,1.18,13.51,2.72,15.29,5.89
		c0.29,0.52,0.94,0.72,1.49,0.47c0.27-0.12,0.57-0.27,0.89-0.43c0.21,0.13,0.43,0.27,0.65,0.4c-0.07,0.86-0.23,1.7-0.43,2.38
		c-0.09,0.28-0.18,0.55-0.28,0.77c-0.33,0.73-0.47,1.34,0.25,1.68l9.43,4.34c0.14-1.18-0.27-2.86-1.06-4.74
		c-0.22-0.52-0.47-1.05-0.74-1.59c0.12,0.03,0.24,0.07,0.37,0.1c0,0,0.01,0,0.01,0.01c2.75,1.7,11.61-1.49,17.33-3.55
		c4.38,1.01,14.12-1.27,18.76-2.12c1.5,0.68,3.63-0.03,5.07-1.81c0.27-0.33,0.49-0.69,0.67-1.05l0.11-0.06c0,0,0-0.06-0.01-0.14
		c0.78-1.64,0.69-3.37-0.31-4.37c-0.42-5.88-1.14-15.93-1.41-20.29c0.65-1.19,1.17-2.45,1.53-3.75c0.46-1.63,0.68-3.3,0.65-4.94
		c2.87-4.73,7.74-14.62,19.87-19.62c1.65,1.57,4.2,2.39,6.89,1.97c2.04-0.32,3.78-1.29,4.98-2.61c2.01,0.01,6.75,0.14,6.75,0.14
		c1.87,1.73,3.65,2.13,5.35,1.14l-2.53-2.07l2.13,0.7l1.32,0.43c0,0,0.89-0.98,0.93-1.59C347.29,36.69,347.56,34.34,347.28,33.72z
		 M185.82,48.44c1.24-0.18,2.48-0.48,3.74-0.84c0.01,0,0.03-0.01,0.04-0.01c0.86-0.11,1.72-0.23,2.57-0.35
		c-1.61,0.49-3.22,0.99-4.84,1.44C186.82,48.61,186.32,48.54,185.82,48.44z M189.46,50.6c-0.33,0.09-0.66,0.18-0.99,0.27
		c-0.35,0-0.69-0.02-1.04-0.04C188.11,50.78,188.78,50.71,189.46,50.6z M184.01,51.85c-0.95,0.15-1.89,0.24-2.81,0.27
		c0,0-0.01,0-0.01,0c-0.99-0.32-1.89-0.79-2.76-1.32c2.02,0.31,4.05,0.31,6.09,0.09c0.22,0.01,0.44,0.02,0.67,0.02
		c0.44,0.17,0.89,0.32,1.34,0.44C185.69,51.54,184.85,51.72,184.01,51.85z M193.45,54.89c-2.26,0.66-4.51,1.04-6.81,1.14
		c1.93-0.34,3.81-0.87,5.66-1.51c1.83-0.23,3.64-0.63,5.43-1.12C196.32,53.95,194.9,54.46,193.45,54.89z M262.24,95.52
		c-0.54-0.27-1.18-0.07-1.49,0.44c-0.22,0.35-0.46,0.77-0.71,1.23c-0.66-0.81-1-1.71-1.23-2.76l-3.45,1.51c0,0,0,0,0,0l3.45-1.51
		c-0.01-0.06-0.03-0.12-0.04-0.18c-0.16-0.79-0.39-1.36-1.18-1.22l-4.19,0.7c-3.24-2.32-12.16-3.4-17.26-5.84
		c-0.01-0.2-0.03-0.41-0.07-0.62c-0.02-0.11-0.06-0.2-0.09-0.31c2.47-2.82,4.88-5.4,6.91-8.4c1.45-2.15,2.71-4.51,3.67-7.36
		c0.22-0.2,0.44-0.41,0.66-0.62c8.34,5.87,21.41,7.34,35.63,6.16l-0.35,1.82l-2.13,10.99c-0.46,0.21-0.92,0.49-1.35,0.85
		c-0.46,0.38-0.83,0.81-1.14,1.25c-0.22,0.06-0.43,0.17-0.58,0.36c-0.26,0.32-0.57,0.7-0.88,1.1c-0.56-0.95-0.76-1.94-0.82-3.1
		c0-0.05-0.01-0.09-0.01-0.13c-0.05-0.73-0.22-1.27-0.98-1.25l-10.27,0.15c0.36,1.06,1.16,2.19,2.3,3.32
		c1.14,1.12,2.64,2.23,4.41,3.24C267.42,96.18,264.11,96.45,262.24,95.52z M285.43,91.79c0.63-1.13,1.37-2.46,2.16-3.89
		c1.28-2.3,2.7-4.85,4.03-7.24l3.55,8.73c-0.07,0.08-0.16,0.15-0.23,0.24c-0.63,0.78-1.03,1.64-1.21,2.48
		c-2.87,0.54-5.87,0.91-8.5,0.94C285.38,92.63,285.44,92.2,285.43,91.79z"/>
</g>
</svg>
