<?xml version="1.0" encoding="UTF-8" standalone="no"?>
<!-- Uploaded to: SVG Repo, www.svgrepo.com, Generator: SVG Repo Mixer Tools -->

<svg
   width="512px"
   height="512px"
   viewBox="0 0 512 512"
   version="1.1"
   id="svg6"
   sodipodi:docname="facebook-messenger-white-logo-svgrepo-com.svg"
   inkscape:version="1.1.1 (3bf5ae0d25, 2021-09-20)"
   xmlns:inkscape="http://www.inkscape.org/namespaces/inkscape"
   xmlns:sodipodi="http://sodipodi.sourceforge.net/DTD/sodipodi-0.dtd"
   xmlns="http://www.w3.org/2000/svg"
   xmlns:svg="http://www.w3.org/2000/svg">
  <defs
     id="defs10" />
  <sodipodi:namedview
     id="namedview8"
     pagecolor="#ffffff"
     bordercolor="#666666"
     borderopacity="1.0"
     inkscape:pageshadow="2"
     inkscape:pageopacity="0.0"
     inkscape:pagecheckerboard="0"
     showgrid="false"
     inkscape:zoom="0.5"
     inkscape:cx="239"
     inkscape:cy="497"
     inkscape:window-width="1920"
     inkscape:window-height="1009"
     inkscape:window-x="-8"
     inkscape:window-y="-8"
     inkscape:window-maximized="1"
     inkscape:current-layer="svg6" />
  <path
     id="path1878"
     style="stroke-width:1.5625;fill:#0084ff;fill-opacity:1"
     d="M 120 0 C 53.519997 0 7.4273923e-16 53.519997 0 120 L 0 680 C 0 746.48 53.519997 800 120 800 L 680 800 C 746.48 800 800 746.48 800 680 L 800 120 C 800 53.519997 746.48 7.4273923e-16 680 0 L 120 0 z "
     transform="scale(0.64)" />
  <g
     inkscape:groupmode="layer"
     id="layer2"
     inkscape:label="Layer 1"
     style="display:inline">
    <path
       d="m 257,93 c -88.918,0 -161,67.157 -161,150 0,47.205 23.412,89.311 60,116.807 V 417 l 54.819,-30.273 C 225.449,390.801 240.948,393 257,393 345.918,393 418,325.843 418,243 418,160.157 345.918,93 257,93 Z m 16,202 -41,-44 -80,44 88,-94 42,44 79,-44 z"
       fill="#ffffff"
       id="path1872" />
  </g>
</svg>
