<?xml version="1.0" encoding="UTF-8" standalone="no"?>
<!-- Uploaded to: SVG Repo, www.svgrepo.com, Generator: SVG Repo Mixer Tools -->

<svg
   width="800px"
   height="800px"
   viewBox="0 0 24 24"
   id="Layer_1"
   data-name="Layer 1"
   version="1.1"
   sodipodi:docname="travelCar.svg"
   inkscape:version="1.1.1 (3bf5ae0d25, 2021-09-20)"
   xmlns:inkscape="http://www.inkscape.org/namespaces/inkscape"
   xmlns:sodipodi="http://sodipodi.sourceforge.net/DTD/sodipodi-0.dtd"
   xmlns="http://www.w3.org/2000/svg"
   xmlns:svg="http://www.w3.org/2000/svg">
  <sodipodi:namedview
     id="namedview27"
     pagecolor="#ffffff"
     bordercolor="#666666"
     borderopacity="1.0"
     inkscape:pageshadow="2"
     inkscape:pageopacity="0.0"
     inkscape:pagecheckerboard="0"
     showgrid="false"
     inkscape:zoom="1.03"
     inkscape:cx="400"
     inkscape:cy="400.48544"
     inkscape:window-width="1920"
     inkscape:window-height="1009"
     inkscape:window-x="-8"
     inkscape:window-y="-8"
     inkscape:window-maximized="1"
     inkscape:current-layer="Layer_1" />
  <defs
     id="defs4">
    <style
       id="style2">.cls-1{fill:none;stroke:#020202;stroke-miterlimit:10;stroke-width:1.91px;}</style>
  </defs>
  <line
     class="cls-1"
     x1="14.39"
     y1="20.59"
     x2="7.7"
     y2="20.59"
     id="line6"
     style="stroke:#e30613;stroke-opacity:1" />
  <path
     class="cls-1"
     d="M3.89,20.59H1.5V13.91l.69-4.13a1.92,1.92,0,0,1,1.88-1.6H15.39A1.91,1.91,0,0,1,17.2,9.49l1.48,4.42,3.82,1.91v4.77H18.2"
     id="path8"
     style="stroke:#e30613;stroke-opacity:1" />
  <circle
     class="cls-1"
     cx="16.3"
     cy="20.59"
     r="1.91"
     id="circle10"
     style="stroke:#e30613;stroke-opacity:1" />
  <circle
     class="cls-1"
     cx="5.8"
     cy="20.59"
     r="1.91"
     id="circle12"
     style="stroke:#e30613;stroke-opacity:1" />
  <line
     class="cls-1"
     x1="18.68"
     y1="13.91"
     x2="4.36"
     y2="13.91"
     id="line14"
     style="stroke:#e30613;stroke-opacity:1" />
  <line
     class="cls-1"
     x1="12.95"
     y1="10.09"
     x2="12.95"
     y2="13.91"
     id="line16"
     style="stroke:#e30613;stroke-opacity:1" />
  <line
     class="cls-1"
     x1="7.23"
     y1="10.09"
     x2="7.23"
     y2="13.91"
     id="line18"
     style="stroke:#e30613;stroke-opacity:1" />
  <path
     class="cls-1"
     d="M5.32,1.5h8.59a2.86,2.86,0,0,1,2.86,2.86v1a0,0,0,0,1,0,0H2.45a0,0,0,0,1,0,0v-1A2.86,2.86,0,0,1,5.32,1.5Z"
     id="path20"
     style="stroke:#e30613;stroke-opacity:1" />
  <line
     class="cls-1"
     x1="5.32"
     y1="5.32"
     x2="5.32"
     y2="8.18"
     id="line22"
     style="stroke:#e30613;stroke-opacity:1" />
  <line
     class="cls-1"
     x1="13.91"
     y1="5.32"
     x2="13.91"
     y2="8.18"
     id="line24"
     style="stroke:#e30613;stroke-opacity:1" />
</svg>
